<svg width="30" height="30" viewBox="0 0 30 30" fill="none" xmlns="http://www.w3.org/2000/svg">
<path d="M0.865522 8.28443C0.854619 8.3437 0.848474 8.40377 0.846492 8.46383V9.69759C0.848078 10.206 1.16385 10.6606 1.64019 10.8392V12.6545C1.64237 13.2623 2.1203 13.7618 2.72727 13.7906V24.2781C2.1203 24.3071 1.64237 24.8066 1.64019 25.4142V27.2242C1.16286 27.4076 0.847285 27.8655 0.846492 28.3765V29.5833C0.846492 29.8083 1.02926 29.9908 1.25424 29.9908H28.7467C28.9717 29.9908 29.1542 29.8083 29.1542 29.5833V28.3765C29.1534 27.8653 28.8379 27.4074 28.3607 27.2242V25.4035C28.3586 24.7957 27.8804 24.2962 27.2737 24.2674V13.7906C27.8804 13.7618 28.3586 13.2623 28.3607 12.6545V10.8392C28.8369 10.6606 29.1527 10.206 29.1542 9.69759V8.47196C29.1525 8.41189 29.1461 8.35183 29.1352 8.29256C29.3402 8.38335 29.5798 8.29098 29.6706 8.08601C29.7614 7.88124 29.669 7.64159 29.4643 7.5506L15.188 0.0471284C15.0689 -0.0157095 14.9265 -0.0157095 14.8074 0.0471284L0.531312 7.54247C0.332094 7.64773 0.255777 7.89413 0.360638 8.09334C0.45658 8.27532 0.673044 8.35738 0.865522 8.28443ZM2.4555 11.5457V10.9179H7.15704V11.5403L2.4555 11.5457ZM12.924 13.7933V24.2781C12.3171 24.3071 11.8391 24.8066 11.837 25.4142V27.1481H7.96679V25.4142C7.96461 24.8066 7.48669 24.3071 6.87972 24.2781V13.7906C7.48669 13.7618 7.96461 13.2623 7.96679 12.6545V10.9179H11.8314V12.652C11.8324 13.2607 12.3107 13.7614 12.9187 13.7906L12.924 13.7933ZM12.6523 11.5457V10.9179H17.354V11.5403L12.6523 11.5457ZM23.121 13.7933V24.2781C22.514 24.3071 22.0359 24.8066 22.0337 25.4142V27.1481H18.1638V25.4142C18.1616 24.8066 17.6835 24.3071 17.0767 24.2781V13.7906C17.6835 13.7618 18.1616 13.2623 18.1638 12.6545V10.9179H22.0284V12.652C22.0292 13.2607 22.5075 13.7614 23.1155 13.7906L23.121 13.7933ZM22.8492 11.5457V10.9179H27.5508V11.5403L22.8492 11.5457ZM27.5508 26.5258V27.1481H22.8437V26.5258H27.5508ZM17.354 26.5258V27.1481H12.6469V26.5258H17.354ZM13.3262 12.9834H12.973C12.7928 12.9834 12.6469 12.8375 12.6469 12.6573V12.361H17.3485V12.6573C17.3485 12.8375 17.2026 12.9834 17.0224 12.9834H13.3262ZM16.2642 13.7987V24.2728H13.734V13.7987H16.2642ZM13.3262 25.0881H17.0224C17.2026 25.0881 17.3485 25.234 17.3485 25.4142V25.7105H12.6469V25.4142C12.6469 25.234 12.7928 25.0881 12.973 25.0881H13.3262ZM7.15168 26.5258V27.1481H2.44995V26.5258H7.15168ZM2.44995 12.6654V12.361H7.15168V12.6573C7.15168 12.8375 7.00579 12.9834 6.8254 12.9834H2.7679C2.58989 12.979 2.44836 12.8325 2.44995 12.6545V12.6654ZM6.06461 13.8068V24.2728H3.53702V13.7987L6.06461 13.8068ZM2.44995 25.4225C2.44995 25.2421 2.59584 25.0962 2.77603 25.0962H6.8254C7.00579 25.0962 7.15168 25.2421 7.15168 25.4225V25.7187H2.44995V25.4225ZM28.3389 28.3929V29.1918H1.65645V28.3929C1.65645 28.1602 1.84496 27.9715 2.07768 27.9715H27.9177C28.1471 27.9715 28.3346 28.1553 28.3389 28.3846V28.3929ZM27.5454 25.4225V25.7187H22.8437V25.4225C22.8437 25.2421 22.9896 25.0962 23.1698 25.0962H27.2275C27.4013 25.1006 27.5411 25.2403 27.5454 25.4142V25.4225ZM23.9308 24.2809V13.7987H26.4609V24.2728L23.9308 24.2809ZM27.5454 12.6654C27.5454 12.8456 27.3995 12.9915 27.2194 12.9915H23.1726C22.9924 12.9915 22.8465 12.8456 22.8465 12.6654V12.361H27.548L27.5454 12.6654ZM14.9977 0.862434L27.1377 7.24355H2.8577L14.9977 0.862434ZM1.65645 8.47196C1.65645 8.24697 1.83901 8.0644 2.064 8.0644H27.9314C28.1564 8.0644 28.3389 8.24697 28.3389 8.47196V9.70592C28.3389 9.9309 28.1564 10.1135 27.9314 10.1135H2.064C1.83901 10.1135 1.65645 9.9309 1.65645 9.70592V8.47196Z" fill="#1D2128"/>
</svg>
