<svg width="60" height="60" viewBox="0 0 60 60" fill="none" xmlns="http://www.w3.org/2000/svg">
<mask id="mask0_1662_175" style="mask-type:alpha" maskUnits="userSpaceOnUse" x="0" y="0" width="60" height="60">
<rect width="60" height="60" fill="#D9D9D9"/>
</mask>
<g mask="url(#mask0_1662_175)">
<circle cx="23.5" cy="23.5" r="11.5" fill="#E8F0FF" fill-opacity="0.5"/>
<path d="M49 52.5L33.25 36.75C32 37.75 30.5625 38.5417 28.9375 39.125C27.3125 39.7083 25.5833 40 23.75 40C19.2083 40 15.365 38.4275 12.22 35.2825C9.07333 32.1358 7.5 28.2917 7.5 23.75C7.5 19.2083 9.07333 15.3642 12.22 12.2175C15.365 9.0725 19.2083 7.5 23.75 7.5C28.2917 7.5 32.1358 9.0725 35.2825 12.2175C38.4275 15.3642 40 19.2083 40 23.75C40 25.5833 39.7083 27.3125 39.125 28.9375C38.5417 30.5625 37.75 32 36.75 33.25L52.5 49L49 52.5ZM23.75 35C26.875 35 29.5317 33.9067 31.72 31.72C33.9067 29.5317 35 26.875 35 23.75C35 20.625 33.9067 17.9683 31.72 15.78C29.5317 13.5933 26.875 12.5 23.75 12.5C20.625 12.5 17.9683 13.5933 15.78 15.78C13.5933 17.9683 12.5 20.625 12.5 23.75C12.5 26.875 13.5933 29.5317 15.78 31.72C17.9683 33.9067 20.625 35 23.75 35Z" fill="#CECEC9"/>
</g>
</svg>
