<svg width="15" height="15" viewBox="0 0 15 15" fill="none" xmlns="http://www.w3.org/2000/svg">
<g clip-path="url(#clip0_716_8)">
<path d="M8.87424 7.51216L14.7149 1.67129C15.095 1.29136 15.095 0.677075 14.7149 0.29715C14.335 -0.0827741 13.7207 -0.0827741 13.3408 0.29715L7.49992 6.13802L1.65922 0.29715C1.27911 -0.0827741 0.665003 -0.0827741 0.285077 0.29715C-0.0950258 0.677075 -0.0950258 1.29136 0.285077 1.67129L6.12578 7.51216L0.285077 13.353C-0.0950258 13.733 -0.0950258 14.3472 0.285077 14.7272C0.474417 14.9167 0.723371 15.0119 0.972146 15.0119C1.22092 15.0119 1.4697 14.9167 1.65922 14.7272L7.49992 8.88629L13.3408 14.7272C13.5303 14.9167 13.7791 15.0119 14.0279 15.0119C14.2767 15.0119 14.5254 14.9167 14.7149 14.7272C15.095 14.3472 15.095 13.733 14.7149 13.353L8.87424 7.51216Z" fill="white"/>
</g>
<defs>
<clipPath id="clip0_716_8">
<rect width="15" height="15" fill="white"/>
</clipPath>
</defs>
</svg>
