<svg width="13" height="13" viewBox="0 0 13 13" fill="none" xmlns="http://www.w3.org/2000/svg">
<path d="M6.46875 10.25C6.6875 10.25 6.8725 10.1744 7.02375 10.0231C7.17458 9.87229 7.25 9.6875 7.25 9.46875C7.25 9.25 7.17458 9.06521 7.02375 8.91437C6.8725 8.76312 6.6875 8.6875 6.46875 8.6875C6.25 8.6875 6.065 8.76312 5.91375 8.91437C5.76292 9.06521 5.6875 9.25 5.6875 9.46875C5.6875 9.6875 5.76292 9.87229 5.91375 10.0231C6.065 10.1744 6.25 10.25 6.46875 10.25ZM5.90625 7.84375H7.0625C7.0625 7.5 7.10167 7.22917 7.18 7.03125C7.25792 6.83333 7.47917 6.5625 7.84375 6.21875C8.11458 5.94792 8.32813 5.69 8.48438 5.445C8.64063 5.20042 8.71875 4.90625 8.71875 4.5625C8.71875 3.97917 8.50521 3.53125 8.07812 3.21875C7.65104 2.90625 7.14583 2.75 6.5625 2.75C5.96875 2.75 5.48708 2.90625 5.1175 3.21875C4.7475 3.53125 4.48958 3.90625 4.34375 4.34375L5.375 4.75C5.42708 4.5625 5.54437 4.35938 5.72687 4.14063C5.90896 3.92188 6.1875 3.8125 6.5625 3.8125C6.89583 3.8125 7.14583 3.90354 7.3125 4.08563C7.47917 4.26813 7.5625 4.46875 7.5625 4.6875C7.5625 4.89583 7.5 5.09104 7.375 5.27312C7.25 5.45562 7.09375 5.625 6.90625 5.78125C6.44792 6.1875 6.16667 6.49479 6.0625 6.70312C5.95833 6.91146 5.90625 7.29167 5.90625 7.84375ZM6.5 12.75C5.64583 12.75 4.83854 12.5858 4.07812 12.2575C3.31771 11.9296 2.65375 11.4844 2.08625 10.9219C1.51833 10.3594 1.07042 9.69792 0.7425 8.9375C0.414167 8.17708 0.25 7.36458 0.25 6.5C0.25 5.63542 0.414167 4.82292 0.7425 4.0625C1.07042 3.30208 1.51833 2.64063 2.08625 2.07813C2.65375 1.51563 3.31771 1.07021 4.07812 0.741875C4.83854 0.413958 5.64583 0.25 6.5 0.25C7.375 0.25 8.19271 0.413958 8.95313 0.741875C9.71354 1.07021 10.375 1.51563 10.9375 2.07813C11.5 2.64063 11.9427 3.30208 12.2656 4.0625C12.5885 4.82292 12.75 5.63542 12.75 6.5C12.75 7.36458 12.5885 8.17708 12.2656 8.9375C11.9427 9.69792 11.5 10.3594 10.9375 10.9219C10.375 11.4844 9.71354 11.9296 8.95313 12.2575C8.19271 12.5858 7.375 12.75 6.5 12.75ZM6.5 11.5C7.89583 11.5 9.07812 11.0131 10.0469 10.0394C11.0156 9.06521 11.5 7.88542 11.5 6.5C11.5 5.11458 11.0156 3.93479 10.0469 2.96062C9.07812 1.98687 7.89583 1.5 6.5 1.5C5.13542 1.5 3.96083 1.98687 2.97625 2.96062C1.99208 3.93479 1.5 5.11458 1.5 6.5C1.5 7.88542 1.99208 9.06521 2.97625 10.0394C3.96083 11.0131 5.13542 11.5 6.5 11.5Z" fill="#1C1B1F"/>
</svg>
