<svg width="13" height="13" viewBox="0 0 13 13" fill="none" xmlns="http://www.w3.org/2000/svg">
<path d="M2.75 7.75H7.75V6.5H2.75V7.75ZM2.75 5.875H10.25V4.625H2.75V5.875ZM2.75 4H10.25V2.75H2.75V4ZM0.25 12.75V1.5C0.25 1.15625 0.3725 0.861875 0.6175 0.616875C0.862083 0.372292 1.15625 0.25 1.5 0.25H11.5C11.8438 0.25 12.1381 0.372292 12.3831 0.616875C12.6277 0.861875 12.75 1.15625 12.75 1.5V9C12.75 9.34375 12.6277 9.63813 12.3831 9.88313C12.1381 10.1277 11.8438 10.25 11.5 10.25H2.75L0.25 12.75ZM1.5 9.73437L2.23438 9H11.5V1.5H1.5V9.73437Z" fill="#1C1B1F"/>
</svg>
