<svg width="22" height="22" viewBox="0 0 22 22" fill="none" xmlns="http://www.w3.org/2000/svg">
<path d="M20.6765 9.24273C20.676 9.24224 20.6755 9.24175 20.6751 9.24127L12.0067 0.573273C11.6373 0.203629 11.146 0 10.6235 0C10.101 0 9.60973 0.203466 9.24009 0.573111L0.576312 9.23673C0.573394 9.23965 0.570475 9.24273 0.567557 9.24564C-0.191186 10.0088 -0.189889 11.2469 0.571286 12.0081C0.919043 12.356 1.37834 12.5575 1.86942 12.5786C1.88936 12.5805 1.90946 12.5815 1.92973 12.5815H2.27522V18.9606C2.27522 20.2229 3.30228 21.25 4.5649 21.25H7.95622C8.29993 21.25 8.57878 20.9713 8.57878 20.6274V15.6262C8.57878 15.0502 9.04732 14.5817 9.62335 14.5817H11.6236C12.1997 14.5817 12.6682 15.0502 12.6682 15.6262V20.6274C12.6682 20.9713 12.9469 21.25 13.2908 21.25H16.6821C17.9447 21.25 18.9718 20.2229 18.9718 18.9606V12.5815H19.2921C19.8145 12.5815 20.3057 12.3781 20.6755 12.0084C21.4375 11.2459 21.4379 10.0057 20.6765 9.24273Z" fill="#555A66"/>
</svg>
