<svg width="210" height="156" viewBox="0 0 210 156" fill="none" xmlns="http://www.w3.org/2000/svg">
<path opacity="0.05" d="M61.5002 134C21.4978 136.184 19.4677 119.249 14.9899 103.906C16.6725 81.5135 16.2777 84.1008 83.1162 58.5045C149.955 32.9082 161.609 -38.2213 193.158 44.1598C185.937 127.588 128.339 108.404 61.5002 134Z" fill="black"/>
<line x1="149.401" y1="47.8141" x2="145.851" y2="54.172" stroke="#8D8D8D" stroke-linecap="round"/>
<line x1="157.067" y1="70.6382" x2="164.283" y2="69.6637" stroke="#8D8D8D" stroke-linecap="round"/>
<line x1="152.365" y1="62.3027" x2="158.383" y2="58.2035" stroke="#8D8D8D" stroke-linecap="round"/>
<line x1="65.9091" y1="117.997" x2="69.7915" y2="111.837" stroke="#8D8D8D" stroke-linecap="round"/>
<line x1="59.4662" y1="94.7981" x2="52.2084" y2="95.3877" stroke="#8D8D8D" stroke-linecap="round"/>
<line x1="63.7185" y1="103.372" x2="57.4909" y2="107.145" stroke="#8D8D8D" stroke-linecap="round"/>
<path d="M137.013 104.163L175.879 143.029L170.022 148.885L131.001 110.018L130.678 109.697L130.328 109.988C127.251 112.553 123.709 114.556 119.698 115.996C115.689 117.435 111.58 118.154 107.367 118.154C96.7666 118.154 87.8324 114.506 80.533 107.206C73.2336 99.907 69.5857 90.9728 69.5857 80.3724C69.5857 69.8777 73.2327 60.9674 80.5342 53.6123C87.8338 46.2633 96.7676 42.5912 107.367 42.5912C117.862 42.5912 126.744 46.2381 134.045 53.5385C141.344 60.8379 144.992 69.772 144.992 80.3724C144.992 84.7962 144.272 89.0097 142.834 93.016C141.393 97.0295 139.441 100.519 136.982 103.491L136.692 103.842L137.013 104.163ZM128.116 101.193L128.116 101.193C133.781 95.473 136.617 88.5231 136.617 80.3724C136.617 72.2218 133.781 65.2718 128.116 59.5518L128.116 59.5517C122.446 53.8306 115.519 50.9662 107.367 50.9662C99.1124 50.9662 92.1354 53.8293 86.4679 59.5518C80.7989 65.2718 77.9607 72.2217 77.9607 80.3724C77.9607 88.5232 80.7989 95.4732 86.4681 101.193C92.1355 106.916 99.1125 109.779 107.367 109.779C115.519 109.779 122.446 106.914 128.116 101.193Z" fill="white" stroke="#808080"/>
<circle cx="107.586" cy="80.5911" r="27.5" fill="#EEEEEE"/>
<mask id="mask0_2357_824" style="mask-type:alpha" maskUnits="userSpaceOnUse" x="83" y="56" width="51" height="51">
<rect x="83.0857" y="56.0911" width="50" height="50" fill="#D9D9D9"/>
</mask>
<g mask="url(#mask0_2357_824)">
<path d="M114.961 78.2264C115.62 78.2264 116.176 77.9917 116.627 77.5223C117.079 77.0542 117.305 76.5077 117.305 75.8827C117.305 75.223 117.079 74.6674 116.627 74.216C116.176 73.7646 115.62 73.5389 114.961 73.5389C114.301 73.5389 113.755 73.773 113.321 74.241C112.886 74.7105 112.669 75.2577 112.669 75.8827C112.669 76.5424 112.895 77.098 113.346 77.5494C113.798 78.0007 114.336 78.2264 114.961 78.2264ZM101.211 78.2264C101.87 78.2264 102.418 77.9917 102.852 77.5223C103.286 77.0542 103.502 76.5077 103.502 75.8827C103.502 75.223 103.277 74.6674 102.825 74.216C102.374 73.7646 101.836 73.5389 101.211 73.5389C100.551 73.5389 99.9955 73.773 99.5441 74.241C99.0927 74.7105 98.867 75.2577 98.867 75.8827C98.867 76.5424 99.0927 77.098 99.5441 77.5494C99.9955 78.0007 100.551 78.2264 101.211 78.2264ZM108.086 84.216C106.107 84.216 104.275 84.7626 102.592 85.8556C100.907 86.9501 99.6483 88.4001 98.8149 90.2056H100.898C101.662 88.9209 102.677 87.9049 103.944 87.1577C105.212 86.4119 106.593 86.0389 108.086 86.0389C109.579 86.0389 110.959 86.4119 112.227 87.1577C113.494 87.9049 114.509 88.9209 115.273 90.2056H117.357C116.523 88.4001 115.265 86.9501 113.582 85.8556C111.897 84.7626 110.065 84.216 108.086 84.216Z" fill="#808080"/>
</g>
</svg>
