<svg width="128" height="190" viewBox="0 0 128 190" fill="none" xmlns="http://www.w3.org/2000/svg">
<path d="M7.74194 61.9355H120L108.387 147.097H19.3549L7.74194 61.9355Z" fill="#414952"/>
<path d="M68.3874 61.9356H109.678L98.9063 145.807H68.3874V61.9356Z" fill="white"/>
<path d="M60.6454 61.9356H19.3551L30.1265 145.807H60.6454V61.9356Z" fill="white"/>
<path d="M15.4839 146.226C15.4839 144.569 16.827 143.226 18.4839 143.226H109.258C110.915 143.226 112.258 144.569 112.258 146.226V159.581C112.258 161.238 110.915 162.581 109.258 162.581H18.4839C16.827 162.581 15.4839 161.238 15.4839 159.581V146.226Z" fill="#414952"/>
<path d="M89.0323 162.581C89.0323 177.546 76.9007 189.677 61.9355 189.677C46.9704 189.677 34.8387 177.546 34.8387 162.581C34.8387 147.615 46.9704 156.774 61.9355 156.774C76.9007 156.774 89.0323 147.615 89.0323 162.581Z" fill="#414952"/>
<rect y="44.5162" width="127.742" height="19.3549" rx="1" fill="#414952"/>
<path d="M60 0H69L127.742 48.3871H0L60 0Z" fill="#414952"/>
<rect x="33" y="162.677" width="60" height="4" fill="white"/>
</svg>
