<svg width="27" height="22" viewBox="0 0 27 22" fill="none" xmlns="http://www.w3.org/2000/svg">
<path d="M0 0.604741C0.0894666 0.217053 0.506977 -0.0513461 0.864844 0.00829739L7.63448 1.73798V18.0209H0V0.604741Z" fill="#555A66"/>
<path d="M0 19.1021C0 19.3331 0.447333 19.3331 0.864844 19.4476L7.63448 20.9733V9.0146H0V19.1021Z" fill="#555A66"/>
<path d="M26.7207 20.6453C26.6312 21.0329 26.2137 21.3013 25.8559 21.2417L19.0862 19.512V3.2291H26.7207V20.6453Z" fill="#555A66"/>
<path d="M26.7207 1.84684C26.7207 1.61989 26.2734 1.61989 25.8559 1.5074L19.0862 0.00830078V11.7582H26.7207V1.84684Z" fill="#555A66"/>
<path d="M9.54321 1.79763L17.1777 0.276703V19.3927L9.54321 20.9435V1.79763Z" fill="#555A66"/>
</svg>
