<svg width="30" height="30" viewBox="0 0 30 30" fill="none" xmlns="http://www.w3.org/2000/svg">
<path d="M26.5262 18.6908L18.7234 13.7663V10.1772C19.2111 10.059 19.5748 9.61992 19.5748 9.09639C19.5748 8.48256 19.0754 7.98322 18.4616 7.98322H18.0499L15.7637 4.58789C15.6795 4.46297 15.5678 4.36289 15.4396 4.29328V2.16867H16.6607C16.9036 2.16867 17.1003 1.97186 17.1003 1.7291C17.1003 1.48635 16.9036 1.28953 16.6607 1.28953H15.4396V0.43957C15.4396 0.196816 15.2428 0 15 0C14.7572 0 14.5604 0.196816 14.5604 0.43957V1.28947H13.3394C13.0965 1.28947 12.8998 1.48629 12.8998 1.72904C12.8998 1.9718 13.0966 2.16861 13.3394 2.16861H14.5604V4.29322C14.4323 4.36289 14.3206 4.46291 14.2365 4.58777L11.9502 7.98316H11.5385C10.9246 7.98316 10.4253 8.4825 10.4253 9.09633C10.4253 9.61986 10.789 10.0589 11.2767 10.1771V13.7662L3.4738 18.6908C3.1049 18.9236 2.88464 19.3269 2.88464 19.7697C2.88464 20.2363 3.1346 20.6641 3.53703 20.886C3.72394 20.989 3.92632 21.0404 4.12812 21.0404C4.35382 21.0404 4.57888 20.9762 4.78103 20.8486L15 14.3994L25.2189 20.8486C25.6018 21.0904 26.0669 21.1042 26.4629 20.886C26.8654 20.6642 27.1153 20.2364 27.1153 19.7698C27.1154 19.3269 26.8951 18.9236 26.5262 18.6908ZM14.9657 5.07891C14.969 5.07393 14.9779 5.06068 15 5.06068C15.022 5.06068 15.031 5.07393 15.0343 5.07896L16.9899 7.98328H13.01L14.9657 5.07891ZM11.5384 8.86242H18.4616C18.5906 8.86242 18.6955 8.96742 18.6955 9.09639C18.6955 9.22541 18.5905 9.33035 18.4616 9.33035H11.5384C11.4094 9.33035 11.3044 9.22535 11.3044 9.09639C11.3044 8.96742 11.4094 8.86242 11.5384 8.86242ZM17.8442 10.2096V13.2114L15.2346 11.5645C15.0913 11.4741 14.9087 11.4741 14.7654 11.5645L12.1558 13.2114V10.2096H17.8442ZM26.0385 20.1161C25.9852 20.1455 25.844 20.2035 25.6882 20.1051L15.2346 13.5078C15.0913 13.4174 14.9087 13.4174 14.7654 13.5078L4.31181 20.1052C4.15595 20.2034 4.01486 20.1455 3.96148 20.1161C3.83767 20.0479 3.76378 19.9184 3.76378 19.7698C3.76378 19.6326 3.83246 19.5041 3.94302 19.4343L15 12.4562L26.057 19.4343C26.1675 19.5041 26.2362 19.6326 26.2362 19.7698C26.2362 19.9183 26.1623 20.0478 26.0385 20.1161Z" fill="#1D2128"/>
<path d="M24.1946 19.4127C23.9518 19.4127 23.755 19.6095 23.755 19.8522V29.1207H18.5685V23.3514C18.5685 21.3837 16.9678 19.7828 15.0001 19.7828C13.0324 19.7828 11.4316 21.3836 11.4316 23.3514V29.1207H6.24511V19.809C6.24511 19.5662 6.04829 19.3694 5.80554 19.3694C5.56278 19.3694 5.36597 19.5662 5.36597 19.809V29.5604C5.36597 29.8032 5.56278 29.9999 5.80554 29.9999H24.1946C24.4374 29.9999 24.6342 29.8031 24.6342 29.5604V19.8523C24.6342 19.6095 24.4374 19.4127 24.1946 19.4127ZM17.6894 29.1207H12.3108V23.3514C12.3108 21.8685 13.5172 20.662 15.0001 20.662C16.483 20.662 17.6894 21.8685 17.6894 23.3514V29.1207Z" fill="#1D2128"/>
</svg>
