<svg width="11" height="11" viewBox="0 0 11 11" fill="none" xmlns="http://www.w3.org/2000/svg">
<path d="M10.1562 10.4375L6.25 6.53125C5.9375 6.80208 5.57812 7.01042 5.17188 7.15625C4.76562 7.30208 4.36458 7.375 3.96875 7.375C3.01042 7.375 2.19792 7.04167 1.53125 6.375C0.864583 5.70833 0.53125 4.89583 0.53125 3.9375C0.53125 2.97917 0.864583 2.16667 1.53125 1.5C2.19792 0.833333 3.01042 0.5 3.96875 0.5C4.92708 0.5 5.73958 0.833333 6.40625 1.5C7.07292 2.16667 7.40625 2.97917 7.40625 3.9375C7.40625 4.36458 7.32812 4.78125 7.17188 5.1875C7.01562 5.59375 6.8125 5.9375 6.5625 6.21875L10.4688 10.125L10.1562 10.4375ZM3.96875 6.9375C4.8125 6.9375 5.52354 6.64833 6.10188 6.07C6.67979 5.49208 6.96875 4.78125 6.96875 3.9375C6.96875 3.09375 6.67979 2.38271 6.10188 1.80437C5.52354 1.22646 4.8125 0.9375 3.96875 0.9375C3.125 0.9375 2.41417 1.22646 1.83625 1.80437C1.25792 2.38271 0.96875 3.09375 0.96875 3.9375C0.96875 4.78125 1.25792 5.49208 1.83625 6.07C2.41417 6.64833 3.125 6.9375 3.96875 6.9375Z" fill="#1C1B1F"/>
</svg>
