<svg width="36" height="45" viewBox="0 0 36 45" fill="none" xmlns="http://www.w3.org/2000/svg">
<path d="M18 22.5C15.525 22.5 16.2 20.475 16.2 18C16.2 15.525 15.525 13.5 18 13.5C20.475 13.5 16.2 15.525 16.2 18C16.2 20.475 20.475 22.5 18 22.5ZM31.5 18.45C31.5 10.2825 25.5375 4.5 18 4.5C10.4625 4.5 4.5 10.2825 4.5 18.45C4.5 23.715 8.8875 30.69 18 39.015C27.1125 30.69 31.5 23.715 31.5 18.45ZM18 0C27.45 0 36 7.245 36 18.45C36 25.92 29.9925 34.7625 18 45C6.0075 34.7625 0 25.92 0 18.45C0 7.245 8.55 0 18 0Z" fill="white"/>
<path d="M8.10019 4.08648L27.9002 4.08649L32.4002 15.3L31.5002 24.3L27.0002 34.2L18.9002 39.6L9.0002 33.3L2.7002 19.8L8.10019 4.08648Z" fill="white"/>
</svg>
