<svg width="41" height="40" viewBox="0 0 41 40" fill="none" xmlns="http://www.w3.org/2000/svg">
<path d="M39.3535 31.3334C39.7219 31.3334 40.0205 31.0349 40.0205 30.6668C40.0205 30.2986 39.7219 30.0002 39.3535 30.0002H38.6866C38.6866 29.632 38.388 29.3335 38.0196 29.3335C37.6512 29.3335 37.3526 29.632 37.3526 30.0002H26.6806C26.6806 29.632 26.3819 29.3335 26.0136 29.3335C25.6452 29.3335 25.3466 29.632 25.3466 30.0002H24.6796C24.3112 30.0002 24.0127 30.2987 24.0127 30.6668C24.0127 31.035 24.3112 31.3334 24.6796 31.3334H25.3466V33.3334H24.6796C24.3112 33.3334 24.0127 33.6319 24.0127 34.0001C24.0127 34.3683 24.3112 34.6667 24.6796 34.6667H25.3466V35.3334H24.6796C24.3112 35.3334 24.0127 35.6319 24.0127 36C24.0127 36.3681 24.3112 36.6666 24.6796 36.6666H25.3466V38.6666H14.0075V33.151C14.9942 33.7067 16.1074 33.9991 17.2399 34C21.0277 33.9455 24.057 30.8375 24.0125 27.0514C24.0331 24.4191 22.5624 22.0016 20.2147 20.8086C20.9876 19.7569 21.4017 18.4846 21.396 17.1797C21.4192 14.2998 19.3979 11.807 16.5742 11.2331C17.2887 9.65821 17.1659 7.83024 16.2471 6.36509C15.3283 4.89985 13.736 3.99243 12.0064 3.9486C11.9866 3.9486 11.9676 3.95141 11.9479 3.95165C11.5928 1.65735 9.60373 -0.0267104 7.28116 0.000320817C4.95859 0.0273521 3.00941 1.75735 2.70786 4.0593C1.01889 4.3829 -0.147089 5.93712 0.0154146 7.64837C0.177918 9.35962 1.61567 10.6667 3.33551 10.6668H7.22348C7.28366 10.8585 7.35503 11.0466 7.43718 11.2299C4.61358 11.8058 2.59335 14.2995 2.61703 17.1798C2.61132 18.4847 3.02544 19.757 3.79825 20.8087C1.45059 22.0017 -0.020072 24.4192 0.000485212 27.0515C-0.0440683 30.8375 2.98526 33.9455 6.77309 34.0001C7.90561 33.9992 9.01883 33.7069 10.0055 33.1511V38.6667H0.667538C0.29915 38.6667 0.00056337 38.9652 0.00056337 39.3334C0.00056337 39.7016 0.29915 40 0.667538 40H39.3535C39.7219 40 40.0205 39.7016 40.0205 39.3334C40.0205 38.9652 39.7219 38.6667 39.3535 38.6667H38.6866V36.6667H39.3535C39.7219 36.6667 40.0205 36.3683 40.0205 36.0001C40.0205 35.6319 39.7219 35.3334 39.3535 35.3334H38.6866V34.6668H39.3535C39.7219 34.6668 40.0205 34.3684 40.0205 34.0002C40.0205 33.632 39.7219 33.3335 39.3535 33.3335H38.6866V31.3335H39.3535V31.3334ZM6.97827 9.10298C6.97827 9.1804 6.98703 9.25649 6.99047 9.33344H3.33551C2.23043 9.33344 1.33451 8.43805 1.33451 7.33344C1.33451 6.22884 2.23043 5.33345 3.33551 5.33345C3.5124 5.33352 3.68209 5.26329 3.80723 5.13821C3.9323 5.01321 4.00257 4.8436 4.00257 4.66673C3.99913 2.92688 5.33753 1.47829 7.07301 1.34345C8.80849 1.20852 10.3548 2.43298 10.6206 4.15243C8.4451 4.81657 6.96413 6.82954 6.97827 9.10298ZM12.6735 38.6668H11.3395V32.1711C11.5785 31.9486 11.8015 31.7094 12.0065 31.4552C12.2115 31.7094 12.4344 31.9486 12.6735 32.171V38.6668H12.6735ZM12.7545 30.1952L17.1471 25.8048C17.4036 25.5438 17.4016 25.125 17.1429 24.8663C16.8842 24.6077 16.4651 24.6058 16.204 24.8621L12.6735 28.3907V21.6095L15.8131 18.4715C16.0707 18.2107 16.0695 17.7909 15.8101 17.5317C15.5508 17.2726 15.1309 17.2713 14.8699 17.5288L12.6735 19.7241V16.6668C12.6735 16.2986 12.3748 16.0002 12.0065 16.0002C11.6381 16.0002 11.3395 16.2987 11.3395 16.6668V19.7241L9.14311 17.5288C8.8822 17.2713 8.46222 17.2726 8.20287 17.5317C7.94352 17.7909 7.94227 18.2106 8.1999 18.4715L11.3394 21.6095V28.3908L7.809 24.8621C7.54809 24.6046 7.12812 24.6059 6.86877 24.8651C6.6095 25.1242 6.60817 25.5441 6.8658 25.8048L11.2584 30.1952C10.2819 31.7288 8.59158 32.6601 6.77294 32.6668C3.72157 32.6131 1.28902 30.1016 1.33436 27.0516C1.30606 24.6396 2.83136 22.4824 5.11555 21.7039C5.33636 21.6312 5.50332 21.4488 5.55616 21.2224C5.609 20.9961 5.53998 20.7587 5.37419 20.5958C4.45732 19.6962 3.94394 18.4639 3.95098 17.1798C3.90736 14.6359 5.92017 12.5308 8.46464 12.4591C8.74002 12.4834 9.00319 12.3409 9.13326 12.097C9.24699 11.873 9.22471 11.604 9.07565 11.4017C8.58126 10.737 8.31363 9.93118 8.31222 9.1029C8.27971 7.0293 9.93194 5.3204 12.0064 5.28196C14.081 5.3204 15.7332 7.0293 15.7006 9.1029C15.6992 9.93118 15.4316 10.737 14.9372 11.4017C14.7912 11.6057 14.7729 11.8745 14.89 12.0964C15.0078 12.3215 15.2412 12.4623 15.4954 12.4616C18.0584 12.5077 20.1007 14.618 20.0619 17.1798C20.0689 18.4639 19.5554 19.6962 18.6386 20.5958C18.4728 20.7587 18.4038 20.9961 18.4567 21.2224C18.5095 21.4488 18.6765 21.6312 18.8973 21.7039C21.459 22.5992 23.0207 25.19 22.6152 27.872C22.2097 30.5541 19.952 32.5681 17.2399 32.6668C15.4213 32.6601 13.731 31.7288 12.7545 30.1952ZM37.3525 38.6668H26.6806V36.6668H37.3525V38.6668ZM37.3525 35.3334H26.6806V34.6668H37.3525V35.3334ZM37.3525 33.3334H26.6806V31.3334H37.3525V33.3334Z" fill="#1D2128"/>
<path d="M28.6816 16.6669H36.6857C38.4055 16.6668 39.8432 15.3597 40.0058 13.6485C40.1683 11.9372 39.0023 10.383 37.3133 10.0595C37.008 7.73681 35.0274 6.00024 32.6837 6.00024C30.3399 6.00024 28.3593 7.73681 28.0541 10.0595C26.365 10.383 25.199 11.9372 25.3615 13.6485C25.524 15.3597 26.9618 16.6668 28.6816 16.6669ZM28.6816 11.3335C28.8585 11.3336 29.0282 11.2634 29.1534 11.1383C29.2784 11.0133 29.3487 10.8437 29.3487 10.6668C29.3487 8.82588 30.8419 7.33345 32.6837 7.33345C34.5256 7.33345 36.0188 8.8258 36.0188 10.6668C36.0187 10.8436 36.089 11.0132 36.2141 11.1383C36.3392 11.2633 36.5089 11.3335 36.6858 11.3335C37.7909 11.3335 38.6868 12.229 38.6868 13.3335C38.6868 14.4381 37.791 15.3335 36.6858 15.3335H28.6818C27.5767 15.3335 26.6808 14.4382 26.6808 13.3335C26.6808 12.2289 27.5765 11.3335 28.6816 11.3335Z" fill="#1D2128"/>
</svg>
