<svg width="30" height="30" viewBox="0 0 30 30" fill="none" xmlns="http://www.w3.org/2000/svg">
<path d="M29.5 8.74988H27.5V6.74996H29.5C29.7762 6.74996 30 6.52613 30 6.24998C30 5.97383 29.7762 5.75 29.5 5.75H0.49998C0.223828 5.75 0 5.97383 0 6.24998C0 6.52613 0.223828 6.74996 0.49998 6.74996H2.49996V8.74988H0.49998C0.223828 8.74988 0 8.97371 0 9.24986V11.2498C0 11.526 0.223828 11.7498 0.49998 11.7498H0.999902V23.7499C0.999902 24.0261 1.22373 24.2499 1.49988 24.2499H6.49986C6.77602 24.2499 6.99984 24.0261 6.99984 23.7499C6.99984 19.3281 10.578 15.75 14.9998 15.75C19.422 15.75 22.9998 19.3279 22.9998 23.7499C22.9998 24.0261 23.2236 24.2499 23.4998 24.2499H28.4998C28.7759 24.2499 28.9997 24.0261 28.9997 23.7499V11.7499H29.4998C29.7759 11.7499 29.9998 11.526 29.9998 11.2499V9.24992C30 8.97371 29.7762 8.74988 29.5 8.74988ZM28 23.25H23.9863C23.7273 18.5087 19.8067 14.7499 14.9999 14.7499C10.1936 14.7499 6.27264 18.5088 6.01359 23.25H1.99998V11.7499H28V23.25ZM26.5 8.74988H24.5V6.74996H26.5V8.74988ZM21.5 8.74988V6.74996H23.5V8.74988H21.5ZM18.5 8.74988V6.74996H20.5V8.74988H18.5ZM15.5 8.74988V6.74996H17.5V8.74988H15.5ZM12.5 8.74988V6.74996H14.5V8.74988H12.5ZM9.49998 8.74988V6.74996H11.5V8.74988H9.49998ZM6.49998 8.74988V6.74996H8.49996V8.74988H6.49998ZM3.49998 6.74996H5.49996V8.74988H3.49998V6.74996ZM29 10.7499H1.00002V9.74984H2.99807C2.99871 9.74984 2.99936 9.74996 3.00006 9.74996C3.00076 9.74996 3.00135 9.74984 3.00205 9.74984H5.99807C5.99871 9.74984 5.99936 9.74996 6.00006 9.74996C6.00076 9.74996 6.00135 9.74984 6.00205 9.74984H8.99807C8.99871 9.74984 8.99936 9.74996 9.00006 9.74996C9.00076 9.74996 9.00135 9.74984 9.00205 9.74984H11.9981C11.9987 9.74984 11.9994 9.74996 12.0001 9.74996C12.0008 9.74996 12.0013 9.74984 12.0021 9.74984H14.9981C14.9987 9.74984 14.9994 9.74996 15.0001 9.74996C15.0008 9.74996 15.0013 9.74984 15.0021 9.74984H17.9981C17.9987 9.74984 17.9994 9.74996 18.0001 9.74996C18.0008 9.74996 18.0013 9.74984 18.0021 9.74984H20.9981C20.9987 9.74984 20.9994 9.74996 21.0001 9.74996C21.0008 9.74996 21.0013 9.74984 21.0021 9.74984H23.9981C23.9987 9.74984 23.9994 9.74996 24.0001 9.74996C24.0008 9.74996 24.0013 9.74984 24.0021 9.74984H26.9981C26.9987 9.74984 26.9994 9.74996 27.0001 9.74996C27.0008 9.74996 27.0013 9.74984 27.0021 9.74984H29V10.7499H29Z" fill="#1D2128"/>
<path d="M3.50003 14.25H5.5C5.77616 14.25 5.99998 14.0261 5.99998 13.75C5.99998 13.4738 5.7761 13.25 5.5 13.25H3.50003C3.22387 13.25 3.00005 13.4738 3.00005 13.75C3.00005 14.0261 3.22393 14.25 3.50003 14.25Z" fill="#1D2128"/>
<path d="M4.49995 16.25C4.49995 16.5261 4.72378 16.75 4.99993 16.75H6.99992C7.27607 16.75 7.4999 16.5261 7.4999 16.25C7.4999 15.9738 7.27607 15.75 6.99992 15.75H4.99993C4.72378 15.75 4.49995 15.9739 4.49995 16.25Z" fill="#1D2128"/>
<path d="M24.5 14.25H26.5C26.7761 14.25 27 14.0261 27 13.75C27 13.4738 26.7761 13.25 26.5 13.25H24.5C24.2239 13.25 24 13.4738 24 13.75C24 14.0261 24.2239 14.25 24.5 14.25Z" fill="#1D2128"/>
<path d="M23 16.75H25C25.2761 16.75 25.4999 16.5261 25.4999 16.25C25.4999 15.9738 25.2761 15.75 25 15.75H23C22.7238 15.75 22.5 15.9738 22.5 16.25C22.5 16.5261 22.7239 16.75 23 16.75Z" fill="#1D2128"/>
</svg>
